# xmcd
#
# Track frame offsets:
#	150
#	15983
#	29003
#	41906
#	55173
#	66560
#	80623
#	95380
#	109557
#	125621
#	139635
#	156205
#	172238
#	193299
#
# Disc length: 2834 seconds
#
# Revision: 0
# Processed by: cddbd v1.5.2PL0 Copyright (c) Steve Scherf et al.
# Submitted via: dBpowerAMP V4.0
#
DISCID=c90b100e
DTITLE=Various Artist - Sveriges Bästa Dansband 2007-02
DYEAR=2007
DGENRE=Dance Hall
TTITLE0=Mats Bladhs - Om du älskar av hela ditt hjärta
TTITLE1=Blackjack - Jag vill andas samma luft som du
TTITLE2=Wahlströms - Vi gör det ikväll
TTITLE3=Arvingarna - Då kanske drömmen slår in
TTITLE4=Hans Martin - Jag ser tillbaka
TTITLE5=Kellys - Denna sanna kärleken
TTITLE6=Thor Görans - Bara jag har dig
TTITLE7=Chiquita - Längst bak i min buss
TTITLE8=Nizeguys - Nu vet jag vad jag vill och kan
TTITLE9=Emil Sigfridsson - Så som kärleken ska va
TTITLE10=Sven-Ingvars - Minsta lilla tecken
TTITLE11=Grönwalls - Tillbaka igen
TTITLE12=Lasse Berghagen - Stockholm, mina drömmars stad
TTITLE13=Gösta Linderholm - Nattens sista dans
EXTD=
EXTT0=
EXTT1=
EXTT2=
EXTT3=
EXTT4=
EXTT5=
EXTT6=
EXTT7=
EXTT8=
EXTT9=
EXTT10=
EXTT11=
EXTT12=
EXTT13=
PLAYORDER=
